<svg xmlns="http://www.w3.org/2000/svg" viewBox="0 0 259.72 178.66"><defs><style>.cls-1{fill:#e8e8e8;}</style></defs><title>자산 1</title><g id="레이어_2" data-name="레이어 2"><g id="레이어_1-2" data-name="레이어 1"><polygon class="cls-1" points="152.33 135.34 127.31 135.34 139.82 157 152.33 178.66 164.83 157 177.34 135.34 152.33 135.34"/><polygon class="cls-1" points="103.11 67.94 128.13 67.94 115.62 89.6 103.11 111.26 90.61 89.6 78.1 67.94 103.11 67.94"/><polygon class="cls-1" points="168.91 67.94 193.92 67.94 181.41 89.6 168.91 111.26 156.4 89.6 143.9 67.94 168.91 67.94"/><polygon class="cls-1" points="234.71 67.94 209.69 67.94 222.2 89.6 234.71 111.26 247.21 89.6 259.72 67.94 234.71 67.94"/><polygon class="cls-1" points="0 0 12.51 21.66 25.01 43.32 37.52 21.66 50.03 0 0 0"/><polygon class="cls-1" points="65.8 0 78.3 21.66 90.81 43.32 103.31 21.66 115.82 0 65.8 0"/><polygon class="cls-1" points="131.59 0 144.1 21.66 156.61 43.32 169.11 21.66 181.62 0 131.59 0"/></g></g></svg>