<svg xmlns="http://www.w3.org/2000/svg" viewBox="0 0 40.2 36"><defs><style>.cls-1{fill:#fff;}.cls-2{fill:#222;}.cls-3{fill:none;stroke:#fff;stroke-linecap:round;stroke-miterlimit:10;stroke-width:2px;}</style></defs><title>ico_house</title><g id="레이어_2" data-name="레이어 2"><g id="Layer_1" data-name="Layer 1"><rect class="cls-1" x="3.85" y="15.1" width="33.03" height="18.44"/><path class="cls-2" d="M4.69,1.52H34.86l3.92,9.7S36.09,20,30,13.36c0,0-7.34,6.84-9.59-.17,0,0-5.44,6.89-9.53,0,0,0-6,7.34-9.59-1.8Z"/><path class="cls-2" d="M38.1,16.05V33a3.08,3.08,0,0,1-3,3h-30A2.88,2.88,0,0,1,3,35.1a2.88,2.88,0,0,1-.9-2.1V16.05a5.67,5.67,0,0,1-1.85-3A6.32,6.32,0,0,1,.3,9.6L2.45,2.85A4,4,0,0,1,3.85.75,3.75,3.75,0,0,1,6.15,0H33.8a4,4,0,0,1,2.45.78A3.86,3.86,0,0,1,37.7,2.85L39.9,9.6A6.14,6.14,0,0,1,40,13.1,5.79,5.79,0,0,1,38.1,16.05ZM24.6,14.5a3.42,3.42,0,0,0,2.45-.95,2.48,2.48,0,0,0,.8-2.3L26.6,3h-5v8.25a3.39,3.39,0,0,0,.85,2.28A2.74,2.74,0,0,0,24.6,14.5Zm-9.35,0a3.29,3.29,0,0,0,2.38-.95,3.08,3.08,0,0,0,1-2.3V3h-5l-1.25,8.25a2.63,2.63,0,0,0,.7,2.28A2.89,2.89,0,0,0,15.25,14.5Zm-9.1,0a2.94,2.94,0,0,0,2.08-.82,3.31,3.31,0,0,0,1-2L10.55,3h-5l-2.3,7.3a3.17,3.17,0,0,0,.4,2.88A2.87,2.87,0,0,0,6.15,14.5ZM34,14.5a2.94,2.94,0,0,0,2.53-1.3A3.14,3.14,0,0,0,37,10.3L34.65,3h-5L31,11.65a3.24,3.24,0,0,0,1,2A2.85,2.85,0,0,0,34,14.5ZM5.05,33H35.1V17.45s-.07.05-.32.05H34A5.53,5.53,0,0,1,31.63,17a8.16,8.16,0,0,1-2.23-1.63,5.67,5.67,0,0,1-2,1.58,6.09,6.09,0,0,1-2.65.57,7,7,0,0,1-2.57-.42,6.27,6.27,0,0,1-2.08-1.43A4.84,4.84,0,0,1,18.2,17a6.85,6.85,0,0,1-2.6.47A6.49,6.49,0,0,1,12.85,17a5.69,5.69,0,0,1-2-1.6A10.54,10.54,0,0,1,8.45,17a5.21,5.21,0,0,1-2.3.55H5.48a1.25,1.25,0,0,1-.43-.05ZM35.1,33h0Z"/><line class="cls-3" x1="11.05" y1="11.84" x2="12.32" y2="4.17"/><line class="cls-3" x1="20.1" y1="11.84" x2="20.23" y2="4.17"/><line class="cls-3" x1="29.15" y1="11.84" x2="28.05" y2="4.28"/><circle class="cls-2" cx="30.19" cy="24.74" r="1.84"/></g></g></svg>