<svg xmlns="http://www.w3.org/2000/svg" viewBox="0 0 41 41"><defs><style>.cls-1{fill:#fff;stroke:#fff;stroke-miterlimit:10;}</style></defs><title>ico_prohibition</title><g id="레이어_2" data-name="레이어 2"><g id="Layer_1" data-name="Layer 1"><path class="cls-1" d="M20.5,40.5a19.29,19.29,0,0,1-7.8-1.58A19.91,19.91,0,0,1,2.08,28.3,19.46,19.46,0,0,1,.5,20.5a19.62,19.62,0,0,1,1.57-7.8A20.42,20.42,0,0,1,6.35,6.35,20.22,20.22,0,0,1,12.7,2.08,19.46,19.46,0,0,1,20.5.5a19.62,19.62,0,0,1,7.8,1.57,20.42,20.42,0,0,1,6.35,4.28,20.05,20.05,0,0,1,4.27,6.35,19.29,19.29,0,0,1,1.58,7.8,19.29,19.29,0,0,1-1.58,7.8A19.91,19.91,0,0,1,28.3,38.92,19.29,19.29,0,0,1,20.5,40.5Zm0-3a16.41,16.41,0,0,0,12-5,16.41,16.41,0,0,0,5-12,16.55,16.55,0,0,0-1-5.85,17.56,17.56,0,0,0-3-5.1L9.55,33.5a15.9,15.9,0,0,0,5.08,3A16.91,16.91,0,0,0,20.5,37.5ZM7.55,31.45l23.9-23.9a17.05,17.05,0,0,0-5.1-3,16.55,16.55,0,0,0-5.85-1,16.41,16.41,0,0,0-12,4.95A16.41,16.41,0,0,0,3.5,20.5a16.19,16.19,0,0,0,1.1,5.88A18.52,18.52,0,0,0,7.55,31.45Z"/></g></g></svg>