<svg xmlns="http://www.w3.org/2000/svg" viewBox="0 0 61.43 59.11"><defs><style>.cls-1{fill:#fff;}.cls-2{fill:#00dbd0;}</style></defs><title>ico_new_chat</title><g id="레이어_2" data-name="레이어 2"><g id="Isolation_Mode" data-name="Isolation Mode"><path class="cls-1" d="M26,0C11.63,0,0,9.05,0,20.21c0,6.07,3.44,11.5,8.87,15.2a12.49,12.49,0,0,1-3.8,6.44s7.58,2.61,13-2.37a32.92,32.92,0,0,0,7.86.94c14.34,0,26-9,26-20.21S40.31,0,26,0Z"/><path class="cls-1" d="M55.81,54.59c3.44-2.35,5.62-5.8,5.62-9.64,0-5.37-4.23-10-10.23-11.88a15.91,15.91,0,0,1-4.93,6.19A22.19,22.19,0,0,1,32.65,43.7a23.81,23.81,0,0,1-4-.35,10.68,10.68,0,0,0-.13,1.6C28.47,52,35.85,57.77,45,57.77a20.73,20.73,0,0,0,5-.6c3.47,3.17,8.27,1.51,8.27,1.51A7.83,7.83,0,0,1,55.81,54.59Z"/><path class="cls-2" d="M27.12,13.15a1.89,1.89,0,0,0-1.37-.53,2,2,0,0,0-1.87,2l.12,4.8-4.81.12a2,2,0,0,0-1.87,2,1.93,1.93,0,0,0,2,1.87l4.81-.12.12,4.8a1.91,1.91,0,0,0,2,1.87,2,2,0,0,0,1.87-2l-.12-4.8,4.8-.12a2,2,0,0,0,1.35-.6,1.88,1.88,0,0,0,.52-1.37,1.93,1.93,0,0,0-2-1.88l-4.8.13-.12-4.81A1.9,1.9,0,0,0,27.12,13.15Z"/></g></g></svg>