<svg xmlns="http://www.w3.org/2000/svg" viewBox="0 0 69.86 69.87"><defs><style>.cls-1{fill:#fff;}</style></defs><title>ico_alert_off</title><g id="레이어_2" data-name="레이어 2"><g id="icons"><path class="cls-1" d="M69.86,64.59,5.28,0,0,5.28,12.35,17.63a22.07,22.07,0,0,0-2.26,9.74V35C9.71,38.58,8.4,46.93,4.35,48.68H43.4l4.11,4.1H5a3,3,0,0,0,0,6H25.68a8.82,8.82,0,0,0,17.42,0H53.53L64.59,69.87Z"/><path class="cls-1" d="M56.79,44.21A35.4,35.4,0,0,1,54.68,35V27.37A22.3,22.3,0,0,0,37.17,5.6c0-.09,0-.18,0-.28a4.8,4.8,0,0,0-9.59,0c0,.1,0,.19,0,.28a22.17,22.17,0,0,0-6.72,2.69Z"/></g></g></svg>