<svg xmlns="http://www.w3.org/2000/svg" viewBox="0 0 29 29"><defs><style>.cls-1,.cls-2{fill:#222;}.cls-1{stroke:#222;stroke-miterlimit:10;stroke-width:2px;}</style></defs><title>ico_mypage</title><g id="레이어_2" data-name="레이어 2"><g id="Layer_6" data-name="Layer 6"><path class="cls-1" d="M14.5,28A13.5,13.5,0,1,1,28,14.5,13.52,13.52,0,0,1,14.5,28Zm0-25.1A11.6,11.6,0,1,0,26.1,14.5,11.62,11.62,0,0,0,14.5,2.9Z"/><path class="cls-2" d="M10.49,11.51a1.43,1.43,0,1,1-1.43-1.43A1.43,1.43,0,0,1,10.49,11.51Z"/><circle class="cls-2" cx="19.94" cy="11.51" r="1.43"/><path class="cls-2" d="M14.5,20.73a4.56,4.56,0,0,1-4.56-4.55,1,1,0,1,1,1.91,0,2.65,2.65,0,1,0,5.3,0,1,1,0,1,1,1.91,0A4.56,4.56,0,0,1,14.5,20.73Z"/></g></g></svg>