<svg xmlns="http://www.w3.org/2000/svg" viewBox="0 0 39.2 41.96"><defs><style>.cls-1{stroke:#000;stroke-miterlimit:10;stroke-width:0.75px;}</style></defs><title>ico_bell</title><g id="레이어_2" data-name="레이어 2"><g id="_Layer_" data-name="&lt;Layer&gt;"><path class="cls-1" d="M33.86,26.83h-2.5V13c0-5.58-5.2-10.11-11.58-10.11S8.2,7.41,8.2,13V26.77l-2.5.05V13C5.7,6,12,.38,19.78.38S33.86,6,33.86,13Z"/><polygon class="cls-1" points="38.49 33.31 0.74 33.31 5.74 26.43 7.96 27.46 5.64 30.81 33.75 30.81 31.59 27.54 33.8 26.46 38.49 33.31"/><path class="cls-1" d="M19.74,41.58a6,6,0,0,1-6-6h2.5a3.51,3.51,0,0,0,7,0h2.5A6,6,0,0,1,19.74,41.58Z"/></g></g></svg>