<svg xmlns="http://www.w3.org/2000/svg" viewBox="0 0 21.41 21.41"><defs><style>.cls-1{fill:#606060;}</style></defs><title>ico_open_srch</title><g id="레이어_2" data-name="레이어 2"><g id="Layer_2" data-name="Layer 2"><path class="cls-1" d="M9.22,18.44a9.22,9.22,0,1,1,9.22-9.22A9.23,9.23,0,0,1,9.22,18.44ZM9.22,3a6.22,6.22,0,1,0,6.22,6.22A6.23,6.23,0,0,0,9.22,3Z"/><path class="cls-1" d="M19.91,21.41A1.48,1.48,0,0,1,18.85,21l-5-5A1.5,1.5,0,0,1,16,13.87l5,5A1.49,1.49,0,0,1,21,21,1.45,1.45,0,0,1,19.91,21.41Z"/></g></g></svg>