<svg xmlns="http://www.w3.org/2000/svg" viewBox="0 0 42.1 42.1"><defs><style>.cls-1{fill:#222;stroke:#222;stroke-miterlimit:10;}</style></defs><title>ico_settings</title><g id="레이어_2" data-name="레이어 2"><g id="Isolation_Mode" data-name="Isolation Mode"><path class="cls-1" d="M24.55,41.6h-7a1,1,0,0,1-1-1V37.49a17.37,17.37,0,0,1-3.94-1.64l-2.2,2.21a1,1,0,0,1-1.41,0l-5-5a1,1,0,0,1,0-1.42l2.21-2.2a17.37,17.37,0,0,1-1.64-3.94H1.5a1,1,0,0,1-1-1v-7a1,1,0,0,1,1-1H4.61a17.37,17.37,0,0,1,1.64-3.94L4,10.41A1,1,0,0,1,4,9L9,4a1,1,0,0,1,.7-.29h0a1,1,0,0,1,.71.29l2.2,2.21a17.37,17.37,0,0,1,3.94-1.64V1.5a1,1,0,0,1,1-1h7a1,1,0,0,1,1,1V4.61a17.19,17.19,0,0,1,3.94,1.64L31.69,4a1,1,0,0,1,1.42,0l5,5a1,1,0,0,1,.29.7,1,1,0,0,1-.29.71l-2.21,2.21a17.11,17.11,0,0,1,1.64,3.93H40.6a1,1,0,0,1,1,1v7a1,1,0,0,1-1,1H37.49a17.19,17.19,0,0,1-1.64,3.94l2.21,2.2a1,1,0,0,1,0,1.42l-5,5a1,1,0,0,1-1.42,0l-2.2-2.21a17.19,17.19,0,0,1-3.94,1.64V40.6A1,1,0,0,1,24.55,41.6Zm-6-2h5V36.71a1,1,0,0,1,.78-1,14.89,14.89,0,0,0,4.77-2,1,1,0,0,1,1.25.13l2,2.06,3.54-3.54-2.06-2a1,1,0,0,1-.13-1.25,14.8,14.8,0,0,0,2-4.77,1,1,0,0,1,1-.78H39.6v-5H36.71a1,1,0,0,1-1-.78,14.89,14.89,0,0,0-2-4.77,1,1,0,0,1,.13-1.25L35.94,9.7,32.4,6.16l-2,2.06a1,1,0,0,1-1.25.13,15.12,15.12,0,0,0-4.77-2,1,1,0,0,1-.78-1V2.5h-5V5.4a1,1,0,0,1-.78,1,14.89,14.89,0,0,0-4.77,2,1,1,0,0,1-1.25-.13L9.7,6.16,6.17,9.7l2.05,2.05A1,1,0,0,1,8.35,13a15.12,15.12,0,0,0-2,4.77,1,1,0,0,1-1,.78H2.5v5H5.4a1,1,0,0,1,1,.78,15.12,15.12,0,0,0,2,4.77,1,1,0,0,1-.13,1.25l-2.05,2L9.7,35.94l2.05-2.06A1,1,0,0,1,13,33.75a14.89,14.89,0,0,0,4.77,2,1,1,0,0,1,.78,1Zm2.5-9.67a8.88,8.88,0,1,1,8.88-8.88A8.89,8.89,0,0,1,21.05,29.93Zm0-15.76a6.88,6.88,0,1,0,6.88,6.88A6.89,6.89,0,0,0,21.05,14.17Z"/></g></g></svg>