<svg xmlns="http://www.w3.org/2000/svg" viewBox="0 0 50.51 47.61"><defs><style>.cls-1{stroke:#000;stroke-miterlimit:10;}</style></defs><title>ico_chat_idx</title><g id="레이어_2" data-name="레이어 2"><g id="Layer_1" data-name="Layer 1"><path class="cls-1" d="M7.79,44.79l.93-5.91H2.5a2,2,0,0,1-2-2V5A4.47,4.47,0,0,1,5,.5H45.54A4.47,4.47,0,0,1,50,5V36.88a2,2,0,0,1-2,2H23.74L10.81,46.81A2,2,0,0,1,7.79,44.79ZM5,3A2,2,0,0,0,3,5V34.41a2,2,0,0,0,2,2H9.85a2,2,0,0,1,2,2.35l-1,5.61L22.48,36.7a2,2,0,0,1,1.09-.32h22a2,2,0,0,0,2-2V5a2,2,0,0,0-2-2Z"/><path d="M23.61,25.93a4.07,4.07,0,0,1-2.94,1.22,4.41,4.41,0,0,1-2.87-.95,4.33,4.33,0,0,1-1.51-2.55,7.72,7.72,0,0,1,.05-3.34,10.13,10.13,0,0,1,1.46-3.57,9.94,9.94,0,0,1,2.36-2.63,8,8,0,0,1,2.55-1.41q.67-.24.9.15c.14.26,0,.52-.37.78s-.73.54-1.24.95a6.87,6.87,0,0,0-1.38,1.53,9.91,9.91,0,0,0-.85,1.51,11,11,0,0,0-.66,1.7,2.41,2.41,0,0,1,2.21-.46,5.56,5.56,0,0,1,2,.85A3.67,3.67,0,0,1,24.41,21a4.22,4.22,0,0,1,.44,2A4,4,0,0,1,23.61,25.93Zm9.53,0a4.07,4.07,0,0,1-2.94,1.22,4.41,4.41,0,0,1-2.87-.95,4.33,4.33,0,0,1-1.51-2.55,7.72,7.72,0,0,1,.05-3.34,10.13,10.13,0,0,1,1.46-3.57,9.94,9.94,0,0,1,2.36-2.63,8,8,0,0,1,2.55-1.41q.67-.24.9.15c.14.26,0,.52-.37.78s-.73.54-1.24.95a6.87,6.87,0,0,0-1.38,1.53,9.91,9.91,0,0,0-.85,1.51,11,11,0,0,0-.66,1.7,2.41,2.41,0,0,1,2.21-.46,5.56,5.56,0,0,1,2,.85A3.67,3.67,0,0,1,33.94,21a4.22,4.22,0,0,1,.44,2A3.92,3.92,0,0,1,33.14,25.93Z"/></g></g></svg>