<svg xmlns="http://www.w3.org/2000/svg" viewBox="0 0 72.82 76.54"><defs><style>.cls-1{fill:#fff;}</style></defs><title>ico_exit</title><g id="레이어_2" data-name="레이어 2"><g id="icons"><path class="cls-1" d="M72.15,30,61,18.84a2.28,2.28,0,0,0-3.89,1.62V25.1H36.21V16.57a3.18,3.18,0,0,0-1.89-2.91L18.11,6.39H44.85V20.88h6.38V3.19A3.19,3.19,0,0,0,48,0h-45L2.81,0a2.6,2.6,0,0,0-.5.1L2.1.21a3.57,3.57,0,0,0-.56.26.2.2,0,0,1-.08,0l0,0A3.05,3.05,0,0,0,.89,1l-.13.15a4.15,4.15,0,0,0-.3.43,2.12,2.12,0,0,0-.11.21,4,4,0,0,0-.2.48l-.06.2A3.56,3.56,0,0,0,0,3.19V60a3.21,3.21,0,0,0,1.89,2.92L31.71,76.26a3.27,3.27,0,0,0,1.3.28,3.21,3.21,0,0,0,3.2-3.2V63.16H48A3.19,3.19,0,0,0,51.23,60V38.18h5.85v4.64A2.28,2.28,0,0,0,61,44.43L72.15,33.25a2.28,2.28,0,0,0,0-3.23ZM29.82,68.41,6.39,57.9V8.13L29.82,18.64Zm15-11.64H36.21V38.18h8.64Z"/><polygon class="cls-1" points="4.16 4.59 32.53 16.55 32.53 72.07 2.31 59.65 1.55 4.59 4.16 4.59"/></g></g></svg>