<svg xmlns="http://www.w3.org/2000/svg" viewBox="0 0 47.52 47.52"><defs><style>.cls-1,.cls-2{fill:#c3c3c3;stroke:#c3c3c3;stroke-miterlimit:10;}.cls-2{stroke-width:0.5px;}</style></defs><title>ico_emoge_off</title><g id="레이어_2" data-name="레이어 2"><g id="레이어_1-2" data-name="레이어 1"><path class="cls-1" d="M23.76.88A22.89,22.89,0,1,0,46.65,23.76,22.9,22.9,0,0,0,23.76.88Zm0,43.77A20.89,20.89,0,1,1,44.65,23.76,20.9,20.9,0,0,1,23.76,44.65Z"/><path class="cls-1" d="M23.76,47A23.26,23.26,0,1,1,47,23.76,23.29,23.29,0,0,1,23.76,47Zm0-45.77A22.51,22.51,0,1,0,46.27,23.76,22.54,22.54,0,0,0,23.76,1.25Zm0,43.77A21.26,21.26,0,1,1,45,23.76,21.28,21.28,0,0,1,23.76,45Zm0-41.77A20.51,20.51,0,1,0,44.27,23.76,20.53,20.53,0,0,0,23.76,3.25Z"/><path class="cls-2" d="M15.48,19.34A1.66,1.66,0,1,0,13.83,21,1.65,1.65,0,0,0,15.48,19.34Z"/><path class="cls-2" d="M13.83,22.5A3.16,3.16,0,1,1,17,19.34,3.17,3.17,0,0,1,13.83,22.5Zm0-3.31a.16.16,0,0,0-.16.15c0,.18.31.18.31,0A.15.15,0,0,0,13.83,19.19Z"/><path class="cls-2" d="M33.7,17.69a1.66,1.66,0,1,0,1.65,1.65A1.65,1.65,0,0,0,33.7,17.69Z"/><path class="cls-2" d="M33.7,22.5a3.16,3.16,0,1,1,3.15-3.16A3.17,3.17,0,0,1,33.7,22.5Zm0-3.31a.16.16,0,0,0-.16.15c0,.18.31.18.31,0A.15.15,0,0,0,33.7,19.19Z"/><path class="cls-2" d="M33.41,28.05a1,1,0,0,0-1.35.4s-2,3.51-8.3,3.51c-6,0-8.23-3.41-8.32-3.55a1,1,0,1,0-1.7,1c.11.18,2.83,4.51,10,4.51,7.46,0,10-4.36,10.05-4.55A1,1,0,0,0,33.41,28.05Z"/><path class="cls-2" d="M23.76,34.33c-7.38,0-10.23-4.49-10.34-4.68a1.37,1.37,0,1,1,2.34-1.44c.09.14,2.19,3.37,8,3.37,6,0,8-3.28,8-3.32a1.38,1.38,0,0,1,1.86-.54h0a1.38,1.38,0,0,1,.55,1.87C34,29.78,31.44,34.33,23.76,34.33Zm-9.17-6a.66.66,0,0,0-.33.09.64.64,0,0,0-.2.87c.1.17,2.74,4.32,9.7,4.32,7.24,0,9.62-4.17,9.72-4.35a.62.62,0,0,0-.25-.85.64.64,0,0,0-.85.25s-2.13,3.7-8.62,3.7c-6.22,0-8.54-3.57-8.63-3.72a.63.63,0,0,0-.39-.29Z"/></g></g></svg>