<svg xmlns="http://www.w3.org/2000/svg" viewBox="0 0 27.5 27.5"><defs><style>.cls-1,.cls-2{fill:#222;}.cls-1{stroke:#222;stroke-miterlimit:10;stroke-width:0.5px;}</style></defs><title>ico_login2</title><g id="레이어_2" data-name="레이어 2"><g id="Layer_6" data-name="Layer 6"><path class="cls-1" d="M13.75,27.25a13.5,13.5,0,1,1,13.5-13.5A13.52,13.52,0,0,1,13.75,27.25Zm0-25.1a11.6,11.6,0,1,0,11.6,11.6A11.62,11.62,0,0,0,13.75,2.15Z"/><path class="cls-2" d="M9.74,10.76A1.43,1.43,0,1,1,8.31,9.33,1.43,1.43,0,0,1,9.74,10.76Z"/><circle class="cls-2" cx="19.19" cy="10.76" r="1.43"/><path class="cls-2" d="M13.75,20a4.56,4.56,0,0,1-4.56-4.55,1,1,0,1,1,1.91,0,2.65,2.65,0,1,0,5.3,0,1,1,0,1,1,1.91,0A4.56,4.56,0,0,1,13.75,20Z"/></g></g></svg>