<svg xmlns="http://www.w3.org/2000/svg" viewBox="0 0 70.87 71.71"><defs><style>.cls-1{fill:#fff;}</style></defs><title>ico_alert_on</title><g id="레이어_2" data-name="레이어 2"><g id="icons"><path class="cls-1" d="M17.18,52.69H66.11c-4.43-1.92-5.87-11-6.29-14.95V29.37A24.39,24.39,0,0,0,40.66,5.55c0-.1,0-.2,0-.3a5.25,5.25,0,1,0-10.49,0c0,.1,0,.2,0,.3A24.4,24.4,0,0,0,11,29.37v8.37c-.41,3.89-1.85,13-6.29,14.95H17.18Z"/><path class="cls-1" d="M67.57,57H3.3a3.3,3.3,0,1,0,0,6.59H25.9a9.65,9.65,0,0,0,19.06,0H67.57a3.3,3.3,0,1,0,0-6.59Z"/></g></g></svg>