<svg xmlns="http://www.w3.org/2000/svg" viewBox="0 0 41 40.41"><defs><style>.cls-1{fill:#222;stroke:#222;stroke-miterlimit:10;}</style></defs><title>ico_message</title><g id="레이어_2" data-name="레이어 2"><g id="Layer_1" data-name="Layer 1"><path class="cls-1" d="M18.68,1a3.55,3.55,0,0,1,3.64,0L39.05,11a2.32,2.32,0,0,1,1.15,1.23,4.19,4.19,0,0,1,.3,1.52V36.91a3.08,3.08,0,0,1-3,3H3.5A2.88,2.88,0,0,1,1.4,39a2.88,2.88,0,0,1-.9-2.1V13.76a4,4,0,0,1,.32-1.52A2.54,2.54,0,0,1,2,11Zm3.65,21.14,15-8.78-15-9a3.58,3.58,0,0,0-3.66,0l-15,9,15,8.78A3.63,3.63,0,0,0,22.33,22.14Zm-3.66,3.35L3.5,16.56V36.91h34V16.56L22.33,25.49A3.63,3.63,0,0,1,18.67,25.49ZM20.5,36.91h0Z"/></g></g></svg>