<svg xmlns="http://www.w3.org/2000/svg" viewBox="0 0 70.87 70.87"><defs><style>.cls-1{fill:#222;}</style></defs><title>ico_link</title><g id="레이어_2" data-name="레이어 2"><g id="icons"><path class="cls-1" d="M39.67,49.61,30.9,58.38A13,13,0,0,1,12.49,40l8.77-8.77a4.34,4.34,0,1,0-6.14-6.13L6.35,33.83A21.7,21.7,0,0,0,37,64.52l8.77-8.77a4.34,4.34,0,0,0-6.14-6.14Z"/><path class="cls-1" d="M33.83,6.35l-8.77,8.77a4.34,4.34,0,0,0,6.13,6.14L40,12.49A13,13,0,0,1,58.38,30.9l-8.77,8.77a4.34,4.34,0,0,0,6.14,6.14L64.52,37A21.7,21.7,0,0,0,33.83,6.35Z"/><path class="cls-1" d="M20.09,50.78a4.34,4.34,0,0,0,6.13,0L50.78,26.22a4.34,4.34,0,0,0-6.14-6.13L20.09,44.64A4.33,4.33,0,0,0,20.09,50.78Z"/></g></g></svg>