<svg xmlns="http://www.w3.org/2000/svg" viewBox="0 0 35.32 40.87"><defs><style>.cls-1{fill:#fff;}</style></defs><title>ico_download</title><g id="레이어_2" data-name="레이어 2"><g id="Layer_1" data-name="Layer 1"><path class="cls-1" d="M3.78,40.37a3.16,3.16,0,0,1-2.3-1,3.16,3.16,0,0,1-1-2.3V16.73a3.15,3.15,0,0,1,1-2.29,3.16,3.16,0,0,1,2.3-1H7.51a1.71,1.71,0,0,1,1.71,1.71v.35a1.71,1.71,0,0,1-1.71,1.71H5.67a1.4,1.4,0,0,0-1.39,1.4V35.2a1.39,1.39,0,0,0,1.39,1.39h24A1.4,1.4,0,0,0,31,35.2V18.63a1.4,1.4,0,0,0-1.4-1.4H27.81a1.71,1.71,0,0,1-1.71-1.71v-.35a1.71,1.71,0,0,1,1.71-1.71h3.73a3.35,3.35,0,0,1,3.28,3.27V37.09a3.35,3.35,0,0,1-3.28,3.28Zm13.88-9.8a1.47,1.47,0,0,1-1.05-.43L10.5,24A1.47,1.47,0,0,1,10.07,23a1.48,1.48,0,0,1,.43-1.05l.61-.6a1.48,1.48,0,0,1,2.09,0L15,23.08a.48.48,0,0,0,.33.15.48.48,0,0,0,.49-.49V2A1.48,1.48,0,0,1,17.25.5h.82A1.48,1.48,0,0,1,19.55,2V22.74a.47.47,0,0,0,.82.34l1.75-1.75a1.48,1.48,0,0,1,2.09,0l.61.6A1.48,1.48,0,0,1,25.25,23,1.47,1.47,0,0,1,24.82,24l-6.11,6.11A1.48,1.48,0,0,1,17.66,30.57Z"/><path class="cls-1" d="M18.07,1a1,1,0,0,1,1,1V22.74a1,1,0,0,0,1,1,1,1,0,0,0,.69-.29l1.75-1.76a1,1,0,0,1,1.39,0l.6.61a1,1,0,0,1,0,1.38l-6.11,6.11a1,1,0,0,1-1.38,0l-6.11-6.11a1,1,0,0,1,0-1.38l.6-.61a1,1,0,0,1,1.38,0l1.76,1.76a1,1,0,0,0,.68.29,1,1,0,0,0,1-1V2a1,1,0,0,1,1-1h.82M31.54,14a2.85,2.85,0,0,1,2.78,2.77V37.09a2.85,2.85,0,0,1-2.78,2.78H3.78A2.7,2.7,0,0,1,1.83,39,2.7,2.7,0,0,1,1,37.09V16.73a2.68,2.68,0,0,1,.83-1.94A2.66,2.66,0,0,1,3.78,14H7.51a1.21,1.21,0,0,1,1.21,1.21v.35a1.21,1.21,0,0,1-1.21,1.21H5.68a1.9,1.9,0,0,0-1.9,1.9V35.2a1.9,1.9,0,0,0,1.9,1.89h24a1.9,1.9,0,0,0,1.9-1.89V18.63a1.9,1.9,0,0,0-1.9-1.9H27.81a1.21,1.21,0,0,1-1.21-1.21v-.35A1.21,1.21,0,0,1,27.81,14h3.73M18.07,0h-.82a2,2,0,0,0-2,2V22.74L13.55,21a2,2,0,0,0-2.8,0l-.6.6a2,2,0,0,0,0,2.8l6.11,6.11a2,2,0,0,0,2.8,0l6.11-6.11a2,2,0,0,0,0-2.8l-.6-.6a2,2,0,0,0-1.4-.58,1.93,1.93,0,0,0-1.4.58L20,22.73,20.05,2a2,2,0,0,0-2-2ZM31.54,13H27.81a2.21,2.21,0,0,0-2.21,2.21v.35a2.21,2.21,0,0,0,2.21,2.21h1.83a.9.9,0,0,1,.9.9V35.2a.89.89,0,0,1-.9.89h-24a.89.89,0,0,1-.9-.89V18.63a.9.9,0,0,1,.9-.9H7.51a2.21,2.21,0,0,0,2.21-2.21v-.35A2.21,2.21,0,0,0,7.51,13H3.78a3.64,3.64,0,0,0-2.65,1.12A3.64,3.64,0,0,0,0,16.73V37.09a3.61,3.61,0,0,0,1.13,2.65,3.61,3.61,0,0,0,2.65,1.13H31.54a3.86,3.86,0,0,0,3.78-3.78V16.73A3.84,3.84,0,0,0,31.54,13Z"/></g></g></svg>