<svg xmlns="http://www.w3.org/2000/svg" viewBox="0 0 26.44 25.5"><defs><style>.cls-1{fill:#222;}</style></defs><title>ico_chat_srch</title><g id="레이어_2" data-name="레이어 2"><g id="_Layer_" data-name="&lt;Layer&gt;"><path class="cls-1" d="M10.92,21.84A10.92,10.92,0,1,1,21.84,10.92,10.93,10.93,0,0,1,10.92,21.84Zm0-19.59a8.67,8.67,0,1,0,8.67,8.67A8.68,8.68,0,0,0,10.92,2.25Z"/><path class="cls-1" d="M25.32,25.5a1.13,1.13,0,0,1-.8-.33l-7-7a1.12,1.12,0,0,1,1.59-1.59l7,7a1.12,1.12,0,0,1,0,1.59A1.09,1.09,0,0,1,25.32,25.5Z"/></g></g></svg>