<svg xmlns="http://www.w3.org/2000/svg" viewBox="0 0 44 44"><defs><style>.cls-1{fill:#00c6ba;}</style></defs><title>ico_emoge_on</title><g id="레이어_2" data-name="레이어 2"><g id="레이어_1-2" data-name="레이어 1"><path class="cls-1" d="M22,.81A21.19,21.19,0,1,0,43.19,22,21.22,21.22,0,0,0,22,.81Zm0,40.53A19.34,19.34,0,1,1,41.34,22,19.37,19.37,0,0,1,22,41.34Z"/><path class="cls-1" d="M22,43.65A21.65,21.65,0,1,1,43.65,22,21.67,21.67,0,0,1,22,43.65ZM22,1.27A20.73,20.73,0,1,0,42.73,22,20.75,20.75,0,0,0,22,1.27ZM22,41.8A19.8,19.8,0,1,1,41.8,22,19.82,19.82,0,0,1,22,41.8ZM22,3.12A18.88,18.88,0,1,0,40.88,22,18.9,18.9,0,0,0,22,3.12Z"/><path class="cls-1" d="M22,43.54A21.54,21.54,0,1,1,43.54,22,21.56,21.56,0,0,1,22,43.54ZM22,1.16A20.84,20.84,0,1,0,42.84,22,20.87,20.87,0,0,0,22,1.16Zm0,40.53A19.69,19.69,0,1,1,41.69,22,19.72,19.72,0,0,1,22,41.69ZM22,3A19,19,0,1,0,41,22,19,19,0,0,0,22,3Z"/><path class="cls-1" d="M22,44A22,22,0,1,1,44,22,22,22,0,0,1,22,44ZM22,1.62A20.38,20.38,0,1,0,42.38,22,20.4,20.4,0,0,0,22,1.62Zm0,40.53A20.15,20.15,0,1,1,42.15,22,20.17,20.17,0,0,1,22,42.15ZM22,3.47A18.53,18.53,0,1,0,40.53,22,18.55,18.55,0,0,0,22,3.47Z"/><path class="cls-1" d="M14.33,17.91a1.53,1.53,0,1,0-1.53,1.53A1.52,1.52,0,0,0,14.33,17.91Z"/><path class="cls-1" d="M12.8,19.67a1.76,1.76,0,1,1,1.77-1.76A1.76,1.76,0,0,1,12.8,19.67Zm0-3.06a1.3,1.3,0,1,0,1.3,1.3A1.3,1.3,0,0,0,12.8,16.61Z"/><path class="cls-1" d="M12.8,20.83a2.92,2.92,0,1,1,2.92-2.92A2.92,2.92,0,0,1,12.8,20.83Zm0-3.06a.14.14,0,0,0-.14.14c0,.16.29.16.29,0A.15.15,0,0,0,12.8,17.77Z"/><path class="cls-1" d="M12.8,21.06A3.15,3.15,0,1,1,16,17.91,3.15,3.15,0,0,1,12.8,21.06Zm0-5.84a2.69,2.69,0,1,0,2.69,2.69A2.7,2.7,0,0,0,12.8,15.22Zm0,3a.4.4,0,0,1-.24-.07.38.38,0,0,1,.24-.66.38.38,0,0,1,.38.38A.36.36,0,0,1,12.8,18.26Zm0-.46a.12.12,0,0,0-.09.11c0,.1.18.1.18,0A.11.11,0,0,0,12.8,17.8Z"/><path class="cls-1" d="M31.2,16.38a1.53,1.53,0,1,0,1.53,1.53A1.52,1.52,0,0,0,31.2,16.38Z"/><path class="cls-1" d="M31.2,19.67A1.76,1.76,0,1,1,33,17.91,1.77,1.77,0,0,1,31.2,19.67Zm0-3.06a1.3,1.3,0,1,0,1.3,1.3A1.3,1.3,0,0,0,31.2,16.61Z"/><path class="cls-1" d="M31.2,20.83a2.92,2.92,0,1,1,2.92-2.92A2.92,2.92,0,0,1,31.2,20.83Zm0-3.06a.15.15,0,0,0-.15.14c0,.16.29.16.29,0A.14.14,0,0,0,31.2,17.77Z"/><path class="cls-1" d="M31.2,21.06a3.15,3.15,0,1,1,3.15-3.15A3.15,3.15,0,0,1,31.2,21.06Zm0-5.84a2.69,2.69,0,1,0,2.69,2.69A2.7,2.7,0,0,0,31.2,15.22Zm0,3a.4.4,0,0,1-.24-.07.35.35,0,0,1-.14-.28.38.38,0,0,1,.38-.38.37.37,0,0,1,.37.38A.35.35,0,0,1,31.2,18.26Zm0-.46a.11.11,0,0,0-.09.11c0,.1.18.1.18,0A.12.12,0,0,0,31.2,17.8Z"/><path class="cls-1" d="M30.94,26a.93.93,0,0,0-1.26.37S27.83,29.59,22,29.59c-5.57,0-7.62-3.16-7.7-3.29a.93.93,0,1,0-1.58,1c.1.17,2.63,4.17,9.28,4.17,6.91,0,9.21-4,9.3-4.21A.93.93,0,0,0,30.94,26Z"/><path class="cls-1" d="M22,31.67c-6.77,0-9.37-4.11-9.48-4.28a1.16,1.16,0,0,1,.38-1.59,1.14,1.14,0,0,1,.88-.14,1.19,1.19,0,0,1,.72.52c.08.13,2.07,3.18,7.5,3.18,5.65,0,7.46-3.1,7.48-3.13a1.16,1.16,0,0,1,1.57-.46h0a1.16,1.16,0,0,1,.46,1.57C31.41,27.52,29,31.67,22,31.67Zm-8.49-5.58a.65.65,0,0,0-.36.1.7.7,0,0,0-.23,1c.1.16,2.57,4.06,9.08,4.06,6.76,0,9-3.92,9.1-4.09a.7.7,0,0,0-1.22-.67S28,29.82,22,29.82c-5.68,0-7.81-3.26-7.9-3.39a.66.66,0,0,0-.43-.32Z"/><path class="cls-1" d="M22,31.79c-6.83,0-9.47-4.16-9.58-4.34a1.29,1.29,0,0,1,.42-1.75,1.27,1.27,0,0,1,1-.15,1.23,1.23,0,0,1,.78.57c.08.12,2,3.12,7.41,3.12,5.56,0,7.36-3,7.38-3.07a1.27,1.27,0,0,1,1.72-.5h0a1.28,1.28,0,0,1,.51,1.73C31.51,27.58,29.11,31.79,22,31.79Zm-8.49-5.58a.52.52,0,0,0-.3.08.58.58,0,0,0-.2.8c.1.16,2.54,4,9,4,6.7,0,8.91-3.86,9-4a.58.58,0,0,0-1-.55s-2,3.43-8,3.43c-5.76,0-7.91-3.31-8-3.45a.58.58,0,0,0-.36-.27Z"/><path class="cls-1" d="M22,32c-7,0-9.66-4.27-9.78-4.45a1.51,1.51,0,0,1,1.64-2.25,1.49,1.49,0,0,1,.93.68c.08.12,2,3,7.21,3s7.16-2.93,7.18-3a1.5,1.5,0,0,1,2.63,1.46C31.71,27.69,29.24,32,22,32Zm-8.49-6.28a1,1,0,0,0-.54.15,1.05,1.05,0,0,0-.35,1.44c.11.17,2.67,4.23,9.38,4.23,7,0,9.31-4.1,9.4-4.27a1,1,0,1,0-1.82-1s-1.9,3.19-7.58,3.19c-5.5,0-7.52-3.09-7.6-3.23a1.07,1.07,0,0,0-.65-.47A1,1,0,0,0,13.51,25.74ZM22,31.33c-6.58,0-9.08-3.95-9.18-4.12a.82.82,0,0,1,.27-1.12A.77.77,0,0,1,13.7,26a.78.78,0,0,1,.5.37c.09.13,2.18,3.34,7.8,3.34,5.82,0,7.76-3.29,7.78-3.32a.82.82,0,0,1,1.1-.32.81.81,0,0,1,.32,1.1C31.11,27.34,28.84,31.33,22,31.33Zm-8.49-4.89a.27.27,0,0,0-.18,0,.34.34,0,0,0-.12.48c.1.15,2.47,3.89,8.79,3.89,6.57,0,8.71-3.75,8.8-3.91a.35.35,0,1,0-.61-.33S28.11,30.17,22,30.17c-5.87,0-8.1-3.41-8.19-3.56a.32.32,0,0,0-.22-.16Z"/></g></g></svg>