<svg xmlns="http://www.w3.org/2000/svg" xmlns:xlink="http://www.w3.org/1999/xlink" viewBox="0 0 10.54 12.96"><defs><style>.cls-1{fill:none;}.cls-2{clip-path:url(#clip-path);}.cls-3{fill:#fff;}</style><clipPath id="clip-path" transform="translate(0 0)"><rect class="cls-1" width="10.54" height="12.96"/></clipPath></defs><title>자산 1</title><g id="레이어_2" data-name="레이어 2"><g id="레이어_1-2" data-name="레이어 1"><g class="cls-2"><path class="cls-3" d="M8.8,6.89a2.94,2.94,0,0,1,1.4-2.47A3,3,0,0,0,7.83,3.14c-1-.1-2,.6-2.48.6s-1.3-.59-2.15-.57A3.17,3.17,0,0,0,.55,4.79c-1.15,2-.29,4.92.81,6.53.55.79,1.2,1.67,2,1.64s1.13-.53,2.13-.53,1.28.53,2.14.51,1.44-.79,2-1.59a6.43,6.43,0,0,0,.9-1.84A2.85,2.85,0,0,1,8.8,6.89" transform="translate(0 0)"/><path class="cls-3" d="M7.18,2.08A2.9,2.9,0,0,0,7.84,0,3,3,0,0,0,5.93,1a2.76,2.76,0,0,0-.68,2,2.44,2.44,0,0,0,1.93-.91" transform="translate(0 0)"/></g></g></g></svg>