<svg xmlns="http://www.w3.org/2000/svg" viewBox="0 0 50 22"><defs><style>.cls-1{fill:#ccc;}.cls-2{fill:#7a7a7a;}</style></defs><title>자산 1</title><g id="레이어_2" data-name="레이어 2"><g id="레이어_1-2" data-name="레이어 1"><g id="Layer_2" data-name="Layer 2"><g id="Layer_1-2" data-name="Layer 1-2"><path class="cls-1" d="M5,0H45a5,5,0,0,1,5,5V17a5,5,0,0,1-5,5H5a5,5,0,0,1-5-5V5A5,5,0,0,1,5,0Z"/><path class="cls-2" d="M17.64,7.66l-6.89,7.83a.88.88,0,0,1-.65.29H10a.91.91,0,0,1-.67-.41L6.51,10.72A.87.87,0,1,1,8,9.81l2.24,3.65,6.11-7a.87.87,0,0,1,1.3,1.15Z"/><path class="cls-2" d="M10.1,16.16H10a1.27,1.27,0,0,1-1-.59L6.18,10.92A1.25,1.25,0,0,1,8.31,9.61l2,3.21,5.77-6.56a1.25,1.25,0,0,1,1.76-.11,1.23,1.23,0,0,1,.42.86,1.19,1.19,0,0,1-.3.9l-7,7.83A1.25,1.25,0,0,1,10.1,16.16ZM7.25,9.78A.48.48,0,0,0,7,9.85a.5.5,0,0,0-.16.67L9.7,15.17a.51.51,0,0,0,.37.23h0a.5.5,0,0,0,.37-.17l6.88-7.82a.47.47,0,0,0,.12-.35.46.46,0,0,0-.16-.34A.5.5,0,0,0,17,6.6a.47.47,0,0,0-.33.17l-6.5,7.33L7.66,10A.48.48,0,0,0,7.25,9.78Z"/><path class="cls-2" d="M28.12,13.76a1.13,1.13,0,0,1-.5-.47,2.15,2.15,0,0,1-.25-.8,7.44,7.44,0,0,1-.08-1.14,7.92,7.92,0,0,1,.08-1.16,2.32,2.32,0,0,1,.25-.83,1.26,1.26,0,0,1,.5-.52,1.74,1.74,0,0,1,.81-.17,1.77,1.77,0,0,1,.81.17,1.26,1.26,0,0,1,.5.52,2.54,2.54,0,0,1,.26.83,8,8,0,0,1,.07,1.16,7.56,7.56,0,0,1-.07,1.14,2.35,2.35,0,0,1-.26.8,1.13,1.13,0,0,1-.5.47,1.92,1.92,0,0,1-.81.15A1.89,1.89,0,0,1,28.12,13.76Zm2.38,1.45a2.33,2.33,0,0,0,1-.78A3.16,3.16,0,0,0,32,13.14a8.64,8.64,0,0,0,.17-1.79A8.91,8.91,0,0,0,32,9.54a3.41,3.41,0,0,0-.54-1.33,2.5,2.5,0,0,0-1-.82,4.54,4.54,0,0,0-3.14,0,2.5,2.5,0,0,0-1,.82,3.42,3.42,0,0,0-.55,1.33,9,9,0,0,0-.16,1.81,8.68,8.68,0,0,0,.16,1.79,3.17,3.17,0,0,0,.55,1.29,2.33,2.33,0,0,0,1,.78A4.87,4.87,0,0,0,30.5,15.21Z"/><path class="cls-2" d="M34.79,9.23a.52.52,0,0,1,.09-.36.47.47,0,0,1,.33-.09H38a.3.3,0,0,0,.18,0V7.29a.3.3,0,0,0-.18,0H34.16a1.58,1.58,0,0,0-.59.08.64.64,0,0,0-.33.23.73.73,0,0,0-.15.36,3.23,3.23,0,0,0,0,.46v6.71a.22.22,0,0,0,.06.18.26.26,0,0,0,.18.05h1.26a.3.3,0,0,0,.18-.05.26.26,0,0,0,0-.18v-3h2.82a.3.3,0,0,0,.18,0,.26.26,0,0,0,0-.18V10.82a.26.26,0,0,0,0-.18.3.3,0,0,0-.18-.05h-2.8Z"/><path class="cls-2" d="M40.63,9.23a.52.52,0,0,1,.09-.36.47.47,0,0,1,.33-.09h2.74a.3.3,0,0,0,.18,0,.43.43,0,0,0,0-.18V7.47c0-.09,0-.15,0-.18a.3.3,0,0,0-.18,0H40a1.58,1.58,0,0,0-.59.08.64.64,0,0,0-.33.23.83.83,0,0,0-.15.36,3.23,3.23,0,0,0,0,.46v6.71a.22.22,0,0,0,.06.18.26.26,0,0,0,.18.05H40.4a.3.3,0,0,0,.18-.05.26.26,0,0,0,0-.18v-3h2.82a.3.3,0,0,0,.18,0,.26.26,0,0,0,0-.18V10.82a.26.26,0,0,0,0-.18.3.3,0,0,0-.18-.05H40.63Z"/></g></g></g></g></svg>