<svg xmlns="http://www.w3.org/2000/svg" xmlns:xlink="http://www.w3.org/1999/xlink" viewBox="0 0 31.42 30.85"><defs><style>.cls-1{fill:none;}.cls-2{clip-path:url(#clip-path);}.cls-3{fill:#fff;}</style><clipPath id="clip-path" transform="translate(0 0)"><rect class="cls-1" width="31.42" height="30.85"/></clipPath></defs><title>자산 1</title><g id="레이어_2" data-name="레이어 2"><g id="레이어_1-2" data-name="레이어 1"><g class="cls-2"><path class="cls-3" d="M30.44,12H27.34a1.34,1.34,0,0,1-1.19-.55,2.25,2.25,0,0,1,.22-1.75l2.19-2.15a.94.94,0,0,0,0-1.36L25.06,2.8a1,1,0,0,0-1.37,0L21.49,5a1.31,1.31,0,0,1-1.23.43c-.3-.13-1.1-.86-1.1-1.38V1a1,1,0,0,0-1-1H13.23a1,1,0,0,0-1,1V4a1.27,1.27,0,0,1-.56,1.16A2.35,2.35,0,0,1,9.92,5L7.73,2.8a1,1,0,0,0-1.38,0L2.85,6.24a.94.94,0,0,0,0,1.36L5,9.74A1.29,1.29,0,0,1,5.49,11C5.34,11.24,4.61,12,4.07,12H1a1,1,0,0,0-1,1v4.85a1,1,0,0,0,1,1h3.1a1.33,1.33,0,0,1,1.19.56A2.23,2.23,0,0,1,5,21.1L2.85,23.26a1,1,0,0,0,0,1.36L6.35,28a1,1,0,0,0,1.38,0l2.2-2.15a1.32,1.32,0,0,1,1.23-.43c.29.14,1.11.86,1.11,1.38v3a1,1,0,0,0,1,1h4.94a1,1,0,0,0,1-1v-3c0-.53.25-1.05.56-1.16a2.31,2.31,0,0,1,1.77.21L23.69,28a1,1,0,0,0,1.37,0l3.5-3.43a.94.94,0,0,0,0-1.36L26.36,21.1a1.3,1.3,0,0,1-.45-1.2c.15-.29.88-1.09,1.42-1.09h3.11a1,1,0,0,0,1-1V13a1,1,0,0,0-1-1m-14.69,8a4.61,4.61,0,1,1,4.61-4.61,4.61,4.61,0,0,1-4.61,4.61" transform="translate(0 0)"/></g></g></g></svg>