<svg xmlns="http://www.w3.org/2000/svg" xmlns:xlink="http://www.w3.org/1999/xlink" viewBox="0 0 208.05 212.3"><defs><style>.cls-1{fill:none;}.cls-2{clip-path:url(#clip-path);}.cls-3{fill:#3e82f1;}.cls-3,.cls-4,.cls-5,.cls-6{fill-rule:evenodd;}.cls-4{fill:#32a753;}.cls-5{fill:#f9bb00;}.cls-6{fill:#e74133;}</style><clipPath id="clip-path"><rect class="cls-1" width="208.05" height="212.3"/></clipPath></defs><title>자산 1</title><g id="레이어_2" data-name="레이어 2"><g id="레이어_1-2" data-name="레이어 1"><g class="cls-2"><path class="cls-3" d="M208.05,108.56a122,122,0,0,0-1.93-21.71h-100v41.06h57.13a48.83,48.83,0,0,1-21.18,32v26.63H176.4c20.07-18.48,31.65-45.69,31.65-78"/><path class="cls-4" d="M106.15,212.3c28.66,0,52.69-9.5,70.25-25.72l-34.31-26.63c-9.51,6.37-21.66,10.13-35.95,10.13-27.65,0-51-18.67-59.4-43.76H11.29v27.5a106.11,106.11,0,0,0,94.86,58.48"/><path class="cls-5" d="M46.75,126.32a62.74,62.74,0,0,1,0-40.34V58.48H11.29a106.28,106.28,0,0,0,0,95.34Z"/><path class="cls-6" d="M106.15,42.22c15.58,0,29.58,5.36,40.58,15.87l30.45-30.45C158.79,10.52,134.76,0,106.15,0A106.11,106.11,0,0,0,11.29,58.48L46.75,86c8.35-25.09,31.75-43.76,59.4-43.76"/></g></g></g></svg>