<svg xmlns="http://www.w3.org/2000/svg" viewBox="0 0 50 22"><defs><style>.cls-1{fill:#ffce00;}.cls-2{fill:#fff;}</style></defs><title>자산 1</title><g id="레이어_2" data-name="레이어 2"><g id="레이어_1-2" data-name="레이어 1"><g id="Layer_2" data-name="Layer 2"><g id="Layer_1-2" data-name="Layer 1-2"><path class="cls-1" d="M5,0H45a5,5,0,0,1,5,5V17a5,5,0,0,1-5,5H5a5,5,0,0,1-5-5V5A5,5,0,0,1,5,0Z"/><path class="cls-2" d="M32.52,13.76a1.19,1.19,0,0,1-.5-.47,2.15,2.15,0,0,1-.25-.8,7.44,7.44,0,0,1-.08-1.14,7.92,7.92,0,0,1,.08-1.16A2.32,2.32,0,0,1,32,9.36a1.32,1.32,0,0,1,.5-.52,1.74,1.74,0,0,1,.81-.17,1.77,1.77,0,0,1,.81.17,1.26,1.26,0,0,1,.5.52,2.54,2.54,0,0,1,.26.83A8,8,0,0,1,35,11.35a7.56,7.56,0,0,1-.07,1.14,2.35,2.35,0,0,1-.26.8,1.13,1.13,0,0,1-.5.47,1.92,1.92,0,0,1-.81.15A1.89,1.89,0,0,1,32.52,13.76Zm2.38,1.45a2.28,2.28,0,0,0,1-.78,3.16,3.16,0,0,0,.54-1.29,8.64,8.64,0,0,0,.17-1.79,8.91,8.91,0,0,0-.17-1.81,3.41,3.41,0,0,0-.54-1.33,2.43,2.43,0,0,0-1-.82,4.54,4.54,0,0,0-3.14,0,2.5,2.5,0,0,0-1,.82,3.42,3.42,0,0,0-.55,1.33A9,9,0,0,0,30,11.35a8.68,8.68,0,0,0,.16,1.79,3.17,3.17,0,0,0,.55,1.29,2.33,2.33,0,0,0,1,.78,4.87,4.87,0,0,0,3.14,0Z"/><path class="cls-2" d="M41.41,14.63a.75.75,0,0,0,.2.3A.57.57,0,0,0,42,15h1.68q.24,0,.3-.09a.8.8,0,0,0,0-.33V7.19A.69.69,0,0,1,44,7a.3.3,0,0,0-.18,0H42.6a.3.3,0,0,0-.18,0,.26.26,0,0,0,0,.18V13h-.14L40.15,7.37a.65.65,0,0,0-.19-.3A.57.57,0,0,0,39.58,7H37.81c-.15,0-.25,0-.29.09a.64.64,0,0,0-.06.33v7.43a.22.22,0,0,0,.06.18.26.26,0,0,0,.18,0h1.19a.3.3,0,0,0,.18,0,.26.26,0,0,0,0-.18V9h.13Z"/><path class="cls-2" d="M17.64,7.66l-6.89,7.83a.88.88,0,0,1-.65.29H10a.91.91,0,0,1-.67-.41L6.51,10.72A.87.87,0,1,1,8,9.81l2.24,3.65,6.11-7a.87.87,0,0,1,1.3,1.15Z"/><path class="cls-2" d="M10.1,16.16H10a1.27,1.27,0,0,1-1-.59L6.18,10.92A1.25,1.25,0,0,1,8.31,9.61l2,3.21,5.77-6.56a1.25,1.25,0,0,1,1.76-.11,1.23,1.23,0,0,1,.42.86,1.19,1.19,0,0,1-.3.9l-7,7.83A1.25,1.25,0,0,1,10.1,16.16ZM7.25,9.78A.48.48,0,0,0,7,9.85a.5.5,0,0,0-.16.67L9.7,15.17a.51.51,0,0,0,.37.23h0a.5.5,0,0,0,.37-.17l6.88-7.82a.47.47,0,0,0,.12-.35.46.46,0,0,0-.16-.34A.5.5,0,0,0,17,6.6a.47.47,0,0,0-.33.17l-6.5,7.33L7.66,10A.48.48,0,0,0,7.25,9.78Z"/></g></g></g></g></svg>