<svg xmlns="http://www.w3.org/2000/svg" xmlns:xlink="http://www.w3.org/1999/xlink" viewBox="0 0 32.1 27.08"><defs><style>.cls-1,.cls-4{fill:none;}.cls-2{clip-path:url(#clip-path);}.cls-3{fill:#fff;}.cls-4{stroke:#fff;stroke-miterlimit:10;stroke-width:2px;}</style><clipPath id="clip-path" transform="translate(0 0)"><rect class="cls-1" width="32.1" height="27.08"/></clipPath></defs><title>자산 1</title><g id="레이어_2" data-name="레이어 2"><g id="레이어_1-2" data-name="레이어 1"><g class="cls-2"><path class="cls-3" d="M30.53,4.77,12.47,25.31a2.28,2.28,0,0,1-1.71.77h-.19A2.28,2.28,0,0,1,8.82,25L1.34,12.8a2.27,2.27,0,1,1,3.87-2.38L11.09,20l16-18.22a2.27,2.27,0,0,1,3.41,3" transform="translate(0 0)"/><path class="cls-4" d="M30.53,4.77,12.47,25.31a2.28,2.28,0,0,1-1.71.77h-.19A2.28,2.28,0,0,1,8.82,25L1.34,12.8a2.27,2.27,0,1,1,3.87-2.38L11.09,20l16-18.22a2.27,2.27,0,0,1,3.41,3Z" transform="translate(0 0)"/></g></g></g></svg>