<?xml version="1.0" encoding="UTF-8"?><svg id="_레이어_1" xmlns="http://www.w3.org/2000/svg" viewBox="0 0 2031.25 1874.446"><defs><style>.cls-1{fill:#381e1f;}.cls-2{fill:#ffe812;}</style></defs><path class="cls-1" d="M1015.625,0C454.707,0,0,358.526,0,800.781c0,285.928,190.098,536.816,476.055,678.486-15.557,53.652-99.971,345.156-103.33,368.057,0,0-2.021,17.207,9.121,23.77s24.248,1.465,24.248,1.465c31.953-4.463,370.537-242.295,429.141-283.594,58.545,8.291,118.828,12.598,180.391,12.598,560.918,0,1015.625-358.516,1015.625-800.781S1576.543,0,1015.625,0h0Z"/><path class="cls-2" d="M454.102,1080.322c-32.314,0-58.594-25.098-58.594-55.957v-348.096h-91.426c-31.709,0-57.5-25.742-57.5-57.373s25.801-57.373,57.5-57.373h300.039c31.709,0,57.5,25.742,57.5,57.373s-25.801,57.373-57.5,57.373h-91.426v348.096c0,30.859-26.279,55.957-58.594,55.957Zm513.789-.762c-24.434,0-43.125-9.922-48.76-25.879l-29.014-75.957-178.672-.01-29.033,76.006c-5.615,15.928-24.297,25.84-48.73,25.84-12.852,.013-25.556-2.745-37.246-8.086-16.152-7.451-31.68-27.939-13.887-83.203l140.156-368.906c9.873-28.057,39.863-56.963,78.027-57.832,38.271,.859,68.262,29.775,78.154,57.891l140.098,368.74c17.832,55.391,2.305,75.889-13.848,83.32-11.693,5.332-24.395,8.086-37.246,8.076-.01,0,0,0,0,0h0Zm-108.584-205.625l-58.525-166.26-58.525,166.26h117.051Zm253.975,197.842c-30.967,0-56.152-24.102-56.152-53.711v-397.949c0-32.314,26.836-58.594,59.814-58.594s59.814,26.279,59.814,58.594v344.238h124.512c30.967,0,56.152,24.102,56.152,53.711s-25.185,53.711-56.152,53.711h-187.988Zm325.527,7.783c-32.315,0-58.594-26.279-58.594-58.594v-400.85c0-32.314,26.279-58.594,58.594-58.594s58.594,26.279,58.594,58.594v125.937l163.477-163.477c8.408-8.408,19.961-13.037,32.5-13.037,14.629,0,29.316,6.309,40.322,17.305,10.264,10.254,16.387,23.447,17.227,37.148,.85,13.818-3.75,26.484-12.93,35.674l-133.525,133.506,144.228,191.074c9.406,12.382,13.458,28.017,11.25,43.408-2.11,15.401-10.297,29.317-22.734,38.643-10.132,7.702-22.517,11.857-35.244,11.826-18.41,.086-35.772-8.554-46.807-23.291l-137.412-182.07-20.332,20.332v127.842c-.038,32.357-26.256,58.58-58.613,58.623h0Z"/></svg>