<svg xmlns="http://www.w3.org/2000/svg" viewBox="0 0 33.51 36.72"><defs><style>.cls-1{fill:#222;}</style></defs><title>ipt_hash</title><g id="레이어_2" data-name="레이어 2"><g id="레이어_1-2" data-name="레이어 1"><path class="cls-1" d="M31,8.69H28.26l.95-5.78a2.5,2.5,0,1,0-4.93-.82l-1.09,6.6H14.1l1-5.78a2.5,2.5,0,0,0-4.94-.82L9,8.69H4.44a2.5,2.5,0,0,0,0,5H8.21L6.64,23.26H2.5a2.5,2.5,0,0,0,0,5H5.81L4.9,33.82A2.49,2.49,0,0,0,7,36.69a2.83,2.83,0,0,0,.41,0,2.49,2.49,0,0,0,2.46-2.09l1.05-6.37H20l-.92,5.56a2.5,2.5,0,0,0,2.07,2.87,2.69,2.69,0,0,0,.4,0A2.49,2.49,0,0,0,24,34.63L25,28.26h4a2.5,2.5,0,0,0,0-5H25.86l1.57-9.57H31a2.5,2.5,0,0,0,0-5ZM20.79,23.26H11.7l1.58-9.57h9.09Z"/></g></g></svg>