<svg xmlns="http://www.w3.org/2000/svg" viewBox="0 0 419.66 103.36"><defs><style>.cls-1{fill:#00dbd0;}.cls-2{fill:#222;}.cls-3{fill:#3400d6;}.cls-4{fill:#ef007e;}.cls-5{fill:#ffce00;}</style></defs><title>img_logo</title><g id="레이어_2" data-name="레이어 2"><g id="Layer_2" data-name="Layer 2"><rect class="cls-1" x="103.83" y="20.57" width="82.78" height="82.78"/><path class="cls-2" d="M192.7,14.48V89.26H117.92V14.48H192.7m4-4H113.92V93.26H196.7V10.48Z"/><rect class="cls-3" x="209.38" y="0.2" width="82.78" height="82.78"/><path class="cls-2" d="M298.26,14.29V89.07H223.48V14.29h74.78m4-4H219.48V93.07h82.78V10.29Z"/><polygon class="cls-4" points="371.86 17.06 395.76 58.45 419.66 99.84 371.86 99.84 324.07 99.84 347.97 58.45 371.86 17.06"/><path class="cls-2" d="M362.55,18.09,383,53.48l20.43,35.39H321.69l20.43-35.39,20.43-35.39m0-8L338.66,51.48l-23.9,41.39h95.59l-23.9-41.39-23.9-41.39Z"/><circle class="cls-5" cx="41.39" cy="41.39" r="41.39"/><path class="cls-2" d="M49.92,14.09A37.39,37.39,0,1,1,12.53,51.48,37.43,37.43,0,0,1,49.92,14.09m0-4A41.39,41.39,0,1,0,91.31,51.48,41.39,41.39,0,0,0,49.92,10.09Z"/></g></g></svg>