<svg xmlns="http://www.w3.org/2000/svg" viewBox="0 0 81 18"><defs><style>.cls-1{fill:#222;}</style></defs><title>logo_txt</title><g id="Layer_2" data-name="Layer 2"><g id="Layer_1-2" data-name="Layer 1"><path class="cls-1" d="M11.93,8.9a14.16,14.16,0,0,1-.52,4.18,7.56,7.56,0,0,1-1.35,2.68,4.83,4.83,0,0,1-1.91,1.41,6.08,6.08,0,0,1-4.39,0,4.83,4.83,0,0,1-1.91-1.41A7.39,7.39,0,0,1,.51,13.08,14.54,14.54,0,0,1,0,8.9,14.56,14.56,0,0,1,.51,4.71,7.26,7.26,0,0,1,1.85,2,4.76,4.76,0,0,1,3.76.62a6.08,6.08,0,0,1,4.39,0A4.76,4.76,0,0,1,10.06,2a7.42,7.42,0,0,1,1.35,2.67A14.19,14.19,0,0,1,11.93,8.9Zm-7.76,0a18.25,18.25,0,0,0,.14,2.59,5.67,5.67,0,0,0,.39,1.56,1.6,1.6,0,0,0,.58.76,1.24,1.24,0,0,0,1.35,0,1.55,1.55,0,0,0,.57-.75,6.25,6.25,0,0,0,.39-1.56,18.4,18.4,0,0,0,.15-2.62,18.09,18.09,0,0,0-.15-2.6A6.4,6.4,0,0,0,7.2,4.73,1.55,1.55,0,0,0,6.63,4,1.24,1.24,0,0,0,5.28,4a1.6,1.6,0,0,0-.58.76A5.67,5.67,0,0,0,4.31,6.3,18.31,18.31,0,0,0,4.17,8.9Zm13.26,8.68H13.24V0h4.19Z"/><path class="cls-1" d="M21.76.42H37.27V12.24H31.6V14h6.66v3.57H20.77V14h6.65V12.24H21.76Zm4.18,8.25h7.14V4H25.94Z"/><path class="cls-1" d="M51.74.21V10.62H41.45V.21ZM46.48,11.87v2.58H57.87V18H42.3V11.87Zm1.3-4.62V3.57H45.41V7.25Zm9.89-.62v6H53.48V0h4.19V3.06h1.76V6.63Z"/><path class="cls-1" d="M68.1,7.88a18,18,0,0,1-.24,3l3.92,3.51-2.26,3L66.4,14.51a7.15,7.15,0,0,1-1.62,1.63,8.28,8.28,0,0,1-2.34,1.19l-1.8-3.13a6.32,6.32,0,0,0,1.73-1,4.66,4.66,0,0,0,1.08-1.35A5.9,5.9,0,0,0,64,10.08a14.63,14.63,0,0,0,.16-2.22V.17H68.1Zm4.17,9.7V8.38l-2.45.85V5.3l2.45-.85V0h3.92V17.58Zm8.73,0H77.06V0H81Z"/></g></g></svg>