<svg xmlns="http://www.w3.org/2000/svg" xmlns:xlink="http://www.w3.org/1999/xlink" viewBox="0 0 3102.76 3102.97"><defs><style>.cls-1{fill:none;}.cls-2{clip-path:url(#clip-path);}.cls-3{fill:url(#무제_그라디언트);}</style><clipPath id="clip-path"><path class="cls-1" d="M931.49,992.9c-124.12,283.25-158.26,692.38-11.19,961.74,98.5,180.41,170.37,322.57,323.37,352.28s263.85-32.95,444.23-211.68,440.88-367.53,552.93-503.09c50.1-60.61,88.6-132.75,88.7-207.32v-.58c-.12-92-58.81-187.74-226.41-270.11C1799.35,964.84,1543.94,875,1411,811.59c-51.29-24.48-115.93-45.24-183.08-45.24-106.9,0-220.19,52.59-296.42,226.56"/></clipPath><linearGradient id="무제_그라디언트" x1="823.49" y1="2314.01" x2="824.49" y2="2314.01" gradientTransform="matrix(0, 1387.86, 1387.86, 0, -3209963.61, -1142215.02)" gradientUnits="userSpaceOnUse"><stop offset="0" stop-color="#ff4800"/><stop offset="0.23" stop-color="#ff4800"/><stop offset="0.7" stop-color="#ffce00"/><stop offset="1" stop-color="#ffce00"/></linearGradient></defs><title>자산 1</title><g id="레이어_2" data-name="레이어 2"><g id="레이어_1-2" data-name="레이어 1"><g class="cls-2"><rect class="cls-3" x="450.59" y="449.84" width="2201.57" height="2203.3" transform="translate(-634.32 1360.18) rotate(-40)"/></g></g></g></svg>