<svg xmlns="http://www.w3.org/2000/svg" xmlns:xlink="http://www.w3.org/1999/xlink" viewBox="0 0 2480.7 2475.06"><defs><style>.cls-1{fill:none;}.cls-2{clip-path:url(#clip-path);}.cls-3{fill:url(#무제_그라디언트);}</style><clipPath id="clip-path"><path class="cls-1" d="M1497,718.78c-190.94,60.76-288,59.17-401.39,57.58-25-.35-50.76-.7-78.51-.39-140.52,1.62-255.3,28.62-322,98.24a212.6,212.6,0,0,0-20.17,24.42c-125.35,177.31-61.77,305.44,24.95,376.11,72.61,59.19,121,61.13,256.66,180.61,77.57,68.32,106.26,160.27,220.11,253.26C1286,1798,1433,1799.35,1533.67,1694.33a313.34,313.34,0,0,0,25.5-30.28c133.89-180.58.77-309.7,98.58-459.53,16.87-25.84,31.84-44.44,46.25-59.47,18.83-19.64,36.71-33.2,56.67-48.93s42-33.63,69.13-61.93q5.24-5.46,10.73-11.45c90.65-99,86.34-209.39,12.49-285.48-44.08-45.41-96-61.55-152.37-61.55-63.85,0-133.39,20.72-203.63,43.07"/></clipPath><linearGradient id="무제_그라디언트" x1="604.55" y1="1774.6" x2="605.55" y2="1774.6" gradientTransform="matrix(0, -1169.13, -1169.13, 0, 2075986.41, 708576.5)" gradientUnits="userSpaceOnUse"><stop offset="0" stop-color="#ff7200"/><stop offset="0.31" stop-color="#ff7200"/><stop offset="1" stop-color="#ef007e"/></linearGradient></defs><title>자산 1</title><g id="레이어_2" data-name="레이어 2"><g id="레이어_1-2" data-name="레이어 1"><g class="cls-2"><rect class="cls-3" x="349.93" y="366.18" width="1780.85" height="1742.71" transform="translate(-502.39 1056.37) rotate(-39)"/></g></g></g></svg>