<svg xmlns="http://www.w3.org/2000/svg" xmlns:xlink="http://www.w3.org/1999/xlink" viewBox="0 0 994.71 820.58"><defs><style>.cls-1{fill:none;}.cls-2{clip-path:url(#clip-path);}.cls-3{opacity:0.3;}.cls-4{clip-path:url(#clip-path-2);}.cls-5{fill:#222;}</style><clipPath id="clip-path" transform="translate(-0.5 -0.5)"><rect class="cls-1" width="995.71" height="838.61"/></clipPath><clipPath id="clip-path-2" transform="translate(-0.5 -0.5)"><rect class="cls-1" x="0.5" y="0.5" width="994.71" height="820.58"/></clipPath></defs><title>자산 3</title><g id="레이어_2" data-name="레이어 2"><g id="레이어_1-2" data-name="레이어 1"><g class="cls-2"><g class="cls-3"><g class="cls-4"><path class="cls-5" d="M468.93,1.5c69.89,0,141.79,14.63,207.92,42.3C753.54,75.89,822,124.63,880.43,188.67c77.56,85.05,113.71,155.26,113.78,221,.06,59.7-29.68,111.08-65.62,167.29C895.81,628.2,861.9,681.23,820.09,722c-44.24,43.12-94.8,70.33-159.13,85.64-34.72,8.27-74.63,12.46-118.6,12.46-56.7,0-120.95-7.15-185.8-20.67-60-12.51-119.49-30.15-172-51C103.76,716.3,46.63,662.1,19.36,591.65,4.2,552.48-1.35,509.29,2.86,463.28c4.32-47.23,18.88-96.5,43.26-146.45,43.22-88.56,85-151.79,131.6-199C202,93.21,227.32,73.2,255.1,56.68s57.47-29.22,90.63-38.74C383.71,7,425.16,1.5,468.93,1.5m0-1c-45,0-86.93,6-123.48,16.47C213.61,54.83,128.18,146.39,45.22,316.39c-94,192.61-36.1,363.39,139,432.94C286.13,789.82,422,821.08,542.36,821.08c42.22,0,82.54-3.84,118.83-12.48C801,775.33,857.58,689.85,929.44,577.45S1049.06,372.12,881.17,188C756.25,51,599.7.5,468.93.5" transform="translate(-0.5 -0.5)"/></g></g></g></g></g></svg>