<svg xmlns="http://www.w3.org/2000/svg" xmlns:xlink="http://www.w3.org/1999/xlink" viewBox="0 0 1273.87 1135.8"><defs><style>.cls-1,.cls-5{fill:none;}.cls-2{clip-path:url(#clip-path);}.cls-3{clip-path:url(#clip-path-2);}.cls-4{opacity:0.3;}.cls-5{stroke:#222;stroke-miterlimit:10;}</style><clipPath id="clip-path" transform="translate(0 0)"><rect class="cls-1" width="1273.87" height="1135.8"/></clipPath><clipPath id="clip-path-2" transform="translate(0 0)"><rect class="cls-1" width="1273.87" height="1135.8"/></clipPath></defs><title>자산 1</title><g id="레이어_2" data-name="레이어 2"><g id="레이어_1-2" data-name="레이어 1"><g class="cls-2"><g class="cls-3"><g class="cls-4"><g class="cls-2"><path class="cls-5" d="M994.31,1033.32c-88,115.84-234.15,131.3-353.09,55C517.5,1009,478.48,920.89,393.61,861.88,245.18,758.69,196.89,762.3,118,711.8,23.77,651.5-54,531.48,50.22,341a212.41,212.41,0,0,1,17.24-26.57C125.81,237.64,236.75,197.7,376.17,180c152.42-19.3,247.19-11.37,470.22-111.67C973,11.43,1097.7-39.44,1202.16,46c82.06,67.14,99,176.33,20.22,285q-4.78,6.59-9.35,12.6c-23.71,31.21-43.56,51.51-61.59,69.42s-34.24,33.43-50.7,55.09c-12.6,16.58-25.34,36.77-39.15,64.37-80,160,67,273.08-45.41,467.78a313.1,313.1,0,0,1-21.87,33" transform="translate(0 0)"/></g></g></g></g></g></g></svg>