<svg xmlns="http://www.w3.org/2000/svg" xmlns:xlink="http://www.w3.org/1999/xlink" viewBox="0 0 185.15 183.75"><defs><style>.cls-1{fill:none;}.cls-2{isolation:isolate;}.cls-3{clip-path:url(#clip-path);}.cls-4{clip-path:url(#clip-path-2);}.cls-5{mix-blend-mode:screen;}.cls-6{clip-path:url(#clip-path-4);}.cls-7{fill:url(#무제_그라디언트);}</style><clipPath id="clip-path"><rect class="cls-1" x="38.08" y="37.85" width="104.64" height="109.04" transform="matrix(0.32, -0.95, 0.95, 0.32, -25.81, 148.93)"/></clipPath><clipPath id="clip-path-2"><rect class="cls-1" x="38.08" y="37.85" width="104.64" height="109.04" transform="translate(-25.81 148.93) rotate(-71.57)"/></clipPath><clipPath id="clip-path-4"><path class="cls-1" d="M143.13,56.31c17.23,13.06,6.72,35.87-5.8,51.5-12.84,16-11.82,19.51-17.26,29.31-5.61,10.1-15.09,13.35-25,11.75-6.38-1-14.58-7-17.7-10.73s-5-6.17-13.2-10.44c-17.5-9.09-36-19-30.18-38.59,6.53-22,29.38-17.77,50.7-17.2,13.46.36,16.76-6,26.55-13.64,9-7,20.45-10.59,31.84-2"/></clipPath><linearGradient id="무제_그라디언트" x1="-5.02" y1="151.04" x2="-4.02" y2="151.04" gradientTransform="matrix(-179.19, 0, 0, 179.19, -716.72, -26971.87)" gradientUnits="userSpaceOnUse"><stop offset="0" stop-color="#3c3c3c"/><stop offset="0.3" stop-color="#3c3c3c"/><stop offset="0.7" stop-color="#222"/><stop offset="1" stop-color="#222"/></linearGradient></defs><title>자산 1</title><g class="cls-2"><g id="레이어_2" data-name="레이어 2"><g id="레이어_1-2" data-name="레이어 1"><g class="cls-3"><g class="cls-4"><g class="cls-5"><g class="cls-3"><g class="cls-6"><rect class="cls-7" x="26.62" y="23.78" width="131.9" height="136.19" transform="translate(-34.21 122.47) rotate(-58.35)"/></g></g></g></g></g></g></g></g></svg>