<svg xmlns="http://www.w3.org/2000/svg" xmlns:xlink="http://www.w3.org/1999/xlink" viewBox="0 0 162.75 159.56"><defs><style>.cls-1{fill:none;}.cls-2{isolation:isolate;}.cls-3{clip-path:url(#clip-path);}.cls-4{mix-blend-mode:screen;}.cls-5{clip-path:url(#clip-path-4);}.cls-6{fill:url(#무제_그라디언트);}</style><clipPath id="clip-path"><rect class="cls-1" x="24.94" y="28.61" width="109.04" height="104.64"/></clipPath><clipPath id="clip-path-4"><path class="cls-1" d="M118.09,30.06C138.57,37,135.81,62,128.87,80.75c-7.11,19.27-5,22.25-7.11,33.26-2.13,11.35-10.09,17.43-20,19-6.38,1-16.06-2.06-20.19-4.59s-6.66-4.28-15.83-5.73C46.31,119.64,25.65,116.08,25,95.66c-.77-23,22.25-26.15,42.66-32.34,12.88-3.91,14-11,20.87-21.33,6.36-9.53,16.06-16.52,29.59-11.93"/></clipPath><linearGradient id="무제_그라디언트" x1="24.94" y1="133.27" x2="25.94" y2="133.27" gradientTransform="matrix(-179.19, 0, 0, 179.19, 4640.53, -23800.9)" gradientUnits="userSpaceOnUse"><stop offset="0" stop-color="#3c3c3c"/><stop offset="0.3" stop-color="#3c3c3c"/><stop offset="0.7" stop-color="#222"/><stop offset="1" stop-color="#222"/></linearGradient></defs><title>자산 1</title><g class="cls-2"><g id="레이어_2" data-name="레이어 2"><g id="레이어_1-2" data-name="레이어 1"><g class="cls-3"><g class="cls-3"><g class="cls-4"><g class="cls-3"><g class="cls-5"><rect class="cls-6" x="15.43" y="11.68" width="131.9" height="136.19" transform="translate(-14.9 140.75) rotate(-76.78)"/></g></g></g></g></g></g></g></g></svg>