<svg version="1.0" xmlns="http://www.w3.org/2000/svg"
 width="512.000000pt" height="512.000000pt" viewBox="0 0 512.000000 512.000000"
 preserveAspectRatio="xMidYMid meet">

<g transform="translate(0.000000,512.000000) scale(0.100000,-0.100000)"
fill="#000000" stroke="none">
<path d="M2370 5113 c-371 -35 -653 -114 -961 -269 -245 -122 -444 -268 -655
-478 -224 -225 -366 -423 -500 -701 -158 -326 -237 -650 -251 -1020 -15 -426
73 -832 263 -1214 133 -269 271 -459 488 -677 221 -220 412 -357 681 -489 188
-92 309 -137 500 -185 500 -126 1002 -102 1490 71 149 53 407 182 540 271 365
243 667 578 866 963 181 348 271 694 286 1090 15 426 -73 832 -263 1214 -124
250 -263 447 -458 648 -216 224 -428 378 -711 518 -296 146 -572 225 -900 255
-102 9 -333 11 -415 3z m495 -658 c528 -92 957 -362 1267 -796 76 -105 203
-354 242 -471 127 -383 138 -757 36 -1139 l-12 -42 -599 599 -599 599 -1001
-1000 -1000 -1000 -51 55 c-28 30 -84 99 -124 153 -572 762 -496 1829 180
2503 307 306 689 492 1126 550 131 17 410 11 535 -11z"/>
<path d="M1641 3664 c-253 -68 -410 -331 -346 -579 67 -256 329 -415 580 -350
256 67 415 329 350 578 -67 259 -333 419 -584 351z"/>
</g>
</svg>
